# Blender 4.0.1
# www.blender.org
mtllib treePine_large.040.mtl
o treePine_large
v 5.634404 -0.000000 45.530548
v 5.634404 10.962142 45.530544
v 7.256865 0.000000 49.395195
v 7.256864 10.962142 49.395195
v 8.879325 0.000000 53.259850
v 8.879324 10.962142 53.259846
v 3.392217 0.000000 51.017654
v 3.392217 10.962142 51.017654
v 11.121515 0.000000 47.772736
v 11.121513 10.962142 47.772736
vn -0.9220 -0.0000 0.3871
vn 0.9220 -0.0000 -0.3871
vn -0.3871 -0.0000 -0.9220
vn -0.0000 1.0000 -0.0000
vn 0.3871 -0.0000 0.9220
vt -0.508000 0.000000
vt -0.884235 0.984001
vt -0.884235 0.000000
vt -0.508000 0.984001
vt -0.131764 0.000000
vt -0.131764 0.984001
s 0
usemtl treeB
f 3/1/1 2/2/1 1/3/1
f 2/2/1 3/1/1 4/4/1
f 4/4/1 3/1/1 5/5/1
f 4/4/1 5/5/1 6/6/1
f 1/3/2 2/2/2 3/1/2
f 4/4/2 3/1/2 2/2/2
f 5/5/2 3/1/2 4/4/2
f 6/6/2 5/5/2 4/4/2
f 8/6/3 3/1/3 7/5/3
f 3/1/3 8/6/3 9/3/3
f 9/3/3 8/6/3 10/2/3
f 10/2/4 8/6/4 4/4/4
f 7/5/5 3/1/5 8/6/5
f 9/3/5 8/6/5 3/1/5
f 10/2/5 8/6/5 9/3/5
f 4/4/4 8/6/4 10/2/4
