# Blender 4.0.1
# www.blender.org
mtllib treePine_large.043.mtl
o treePine_large.003
v -44.510036 -0.000000 -37.699913
v -44.510036 10.962142 -37.699917
v -42.887573 0.000000 -33.835266
v -42.887577 10.962142 -33.835266
v -41.265114 0.000000 -29.970612
v -41.265114 10.962142 -29.970615
v -46.752224 0.000000 -32.212807
v -46.752224 10.962142 -32.212807
v -39.022926 0.000000 -35.457726
v -39.022926 10.962142 -35.457726
vn -0.9220 -0.0000 0.3871
vn 0.9220 -0.0000 -0.3871
vn -0.3871 -0.0000 -0.9220
vn -0.0000 -1.0000 -0.0000
vn 0.3871 -0.0000 0.9220
vn -0.0000 1.0000 -0.0000
vt -0.508000 0.000000
vt -0.884235 0.984001
vt -0.884235 0.000000
vt -0.508000 0.984001
vt -0.131764 0.000000
vt -0.131764 0.984001
s 0
usemtl treeB
f 3/1/1 2/2/1 1/3/1
f 2/2/1 3/1/1 4/4/1
f 4/4/1 3/1/1 5/5/1
f 4/4/1 5/5/1 6/6/1
f 1/3/2 2/2/2 3/1/2
f 4/4/2 3/1/2 2/2/2
f 5/5/2 3/1/2 4/4/2
f 6/6/2 5/5/2 4/4/2
f 8/6/3 3/1/3 7/5/3
f 3/1/3 8/6/3 9/3/3
f 9/3/3 8/6/3 10/2/3
f 10/2/4 8/6/4 4/4/4
f 7/5/5 3/1/5 8/6/5
f 9/3/5 8/6/5 3/1/5
f 10/2/5 8/6/5 9/3/5
f 4/4/6 8/6/6 10/2/6
