# Blender 4.0.1
# www.blender.org
mtllib treePine_large.045.mtl
o treePine_large.005
v 49.082302 -0.000000 -0.402863
v 49.082302 10.962142 -0.402866
v 50.704765 0.000000 3.461784
v 50.704762 10.962142 3.461784
v 52.327225 0.000000 7.326439
v 52.327225 10.962142 7.326435
v 46.840115 0.000000 5.084244
v 46.840115 10.962142 5.084244
v 54.569412 0.000000 1.839325
v 54.569412 10.962142 1.839325
vn -0.9220 -0.0000 0.3871
vn 0.9220 -0.0000 -0.3871
vn -0.3871 -0.0000 -0.9220
vn -0.0000 1.0000 -0.0000
vn 0.3871 -0.0000 0.9220
vt -0.508000 0.000000
vt -0.884235 0.984001
vt -0.884235 0.000000
vt -0.508000 0.984001
vt -0.131764 0.000000
vt -0.131764 0.984001
s 0
usemtl treeB
f 3/1/1 2/2/1 1/3/1
f 2/2/1 3/1/1 4/4/1
f 4/4/1 3/1/1 5/5/1
f 4/4/1 5/5/1 6/6/1
f 1/3/2 2/2/2 3/1/2
f 4/4/2 3/1/2 2/2/2
f 5/5/2 3/1/2 4/4/2
f 6/6/2 5/5/2 4/4/2
f 8/6/3 3/1/3 7/5/3
f 3/1/3 8/6/3 9/3/3
f 9/3/3 8/6/3 10/2/3
f 10/2/4 8/6/4 4/4/4
f 7/5/5 3/1/5 8/6/5
f 9/3/5 8/6/5 3/1/5
f 10/2/5 8/6/5 9/3/5
f 4/4/4 8/6/4 10/2/4
