# Blender 4.0.2
# www.blender.org
mtllib wall.mtl
o Torus
v 8.750000 0.434883 0.000000
v 7.540780 1.623704 0.000000
v 5.584220 1.169615 0.000000
v 5.584220 -0.299849 0.000000
v 7.540780 -0.753938 0.000000
v 7.883478 0.434883 -3.796483
v 6.794009 1.623704 -3.271821
v 5.031209 1.169615 -2.422902
v 5.031209 -0.299849 -2.422902
v 6.794009 -0.753938 -3.271821
v 5.455534 0.434883 -6.841026
v 4.701598 1.623704 -5.895620
v 3.481704 1.169615 -4.365920
v 3.481704 -0.299849 -4.365920
v 4.701598 -0.753938 -5.895620
v 1.947060 0.434883 -8.530619
v 1.677983 1.623704 -7.351717
v 1.242607 1.169615 -5.444212
v 1.242607 -0.299849 -5.444212
v 1.677983 -0.753938 -7.351717
v -1.947058 0.434883 -8.530619
v -1.677981 1.623704 -7.351717
v -1.242606 1.169615 -5.444212
v -1.242606 -0.299849 -5.444212
v -1.677981 -0.753938 -7.351717
v -5.455537 0.434883 -6.841024
v -4.701601 1.623704 -5.895618
v -3.481705 1.169615 -4.365919
v -3.481705 -0.299849 -4.365919
v -4.701601 -0.753938 -5.895618
v -7.883477 0.434883 -3.796483
v -6.794008 1.623704 -3.271822
v -5.031209 1.169615 -2.422903
v -5.031209 -0.299849 -2.422903
v -6.794008 -0.753938 -3.271822
v -8.750000 0.434883 -0.000001
v -7.540780 1.623704 -0.000001
v -5.584220 1.169615 -0.000000
v -5.584220 -0.299849 -0.000000
v -7.540780 -0.753938 -0.000001
v -7.883479 0.434883 3.796480
v -6.794009 1.623704 3.271819
v -5.031209 1.169615 2.422900
v -5.031209 -0.299849 2.422900
v -6.794009 -0.753938 3.271819
v -5.455537 0.434883 6.841024
v -4.701601 1.623704 5.895618
v -3.481705 1.169615 4.365919
v -3.481705 -0.299849 4.365919
v -4.701601 -0.753938 5.895618
v -1.947058 0.434883 8.530619
v -1.677981 1.623704 7.351717
v -1.242606 1.169615 5.444212
v -1.242606 -0.299849 5.444212
v -1.677981 -0.753938 7.351717
v 1.947060 0.434883 8.530619
v 1.677983 1.623704 7.351717
v 1.242607 1.169615 5.444212
v 1.242607 -0.299849 5.444212
v 1.677983 -0.753938 7.351717
v 5.455532 0.434883 6.841029
v 4.701596 1.623704 5.895622
v 3.481702 1.169615 4.365921
v 3.481702 -0.299849 4.365921
v 4.701596 -0.753938 5.895622
v 7.883476 0.434883 3.796486
v 6.794006 1.623704 3.271825
v 5.031208 1.169615 2.422904
v 5.031208 -0.299849 2.422904
v 6.794006 -0.753938 3.271825
vn 0.6923 0.7041 -0.1580
vn -0.2258 0.9728 0.0515
vn -0.9749 -0.0000 0.2225
vn -0.2258 -0.9728 0.0515
vn 0.6923 -0.7041 -0.1580
vn 0.5551 0.7041 -0.4427
vn -0.1811 0.9728 0.1444
vn -0.7818 -0.0000 0.6235
vn -0.1811 -0.9728 0.1444
vn 0.5551 -0.7041 -0.4427
vn 0.3081 0.7041 -0.6397
vn -0.1005 0.9728 0.2086
vn -0.4339 -0.0000 0.9010
vn -0.1005 -0.9728 0.2086
vn 0.3081 -0.7041 -0.6397
vn -0.0000 0.7041 -0.7101
vn -0.0000 0.9728 0.2316
vn -0.0000 -0.0000 1.0000
vn -0.0000 -0.9728 0.2316
vn -0.0000 -0.7041 -0.7101
vn -0.3081 0.7041 -0.6397
vn 0.1005 0.9728 0.2086
vn 0.4339 -0.0000 0.9010
vn 0.1005 -0.9728 0.2086
vn -0.3081 -0.7041 -0.6397
vn -0.5551 0.7041 -0.4427
vn 0.1811 0.9728 0.1444
vn 0.7818 -0.0000 0.6235
vn 0.1811 -0.9728 0.1444
vn -0.5551 -0.7041 -0.4427
vn -0.6923 0.7041 -0.1580
vn 0.2258 0.9728 0.0515
vn 0.9749 -0.0000 0.2225
vn 0.2258 -0.9728 0.0515
vn -0.6923 -0.7041 -0.1580
vn -0.6923 0.7041 0.1580
vn 0.2258 0.9728 -0.0515
vn 0.9749 -0.0000 -0.2225
vn 0.2258 -0.9728 -0.0515
vn -0.6923 -0.7041 0.1580
vn -0.5551 0.7041 0.4427
vn 0.1811 0.9728 -0.1444
vn 0.7818 -0.0000 -0.6235
vn 0.1811 -0.9728 -0.1444
vn -0.5551 -0.7041 0.4427
vn -0.3081 0.7041 0.6397
vn 0.1005 0.9728 -0.2086
vn 0.4339 -0.0000 -0.9010
vn 0.1005 -0.9728 -0.2086
vn -0.3081 -0.7041 0.6397
vn -0.0000 0.7041 0.7101
vn -0.0000 0.9728 -0.2316
vn -0.0000 -0.0000 -1.0000
vn -0.0000 -0.9728 -0.2316
vn -0.0000 -0.7041 0.7101
vn 0.3081 0.7041 0.6397
vn -0.1005 0.9728 -0.2086
vn -0.4339 -0.0000 -0.9010
vn -0.1005 -0.9728 -0.2086
vn 0.3081 -0.7041 0.6397
vn 0.5551 0.7041 0.4427
vn -0.1811 0.9728 -0.1444
vn -0.7818 -0.0000 -0.6235
vn -0.1811 -0.9728 -0.1444
vn 0.5551 -0.7041 0.4427
vn 0.6923 0.7041 0.1580
vn -0.2258 0.9728 -0.0515
vn -0.9749 -0.0000 -0.2225
vn -0.2258 -0.9728 -0.0515
vn 0.6923 -0.7041 0.1580
vt 0.571429 0.600000
vt 0.500000 0.800000
vt 0.500000 0.600000
vt 0.571429 1.000000
vt 0.500000 1.000000
vt 0.571429 0.000000
vt 0.500000 0.200000
vt 0.500000 0.000000
vt 0.571429 0.200000
vt 0.500000 0.400000
vt 0.571429 0.400000
vt 0.642857 0.600000
vt 0.571429 0.800000
vt 0.642857 0.800000
vt 0.642857 0.000000
vt 0.642857 0.200000
vt 0.714286 0.600000
vt 0.714286 0.800000
vt 0.642857 1.000000
vt 0.714286 0.000000
vt 0.714286 0.200000
vt 0.642857 0.400000
vt 0.714286 0.400000
vt 0.785714 0.600000
vt 0.785714 0.800000
vt 0.714286 1.000000
vt 0.785714 0.000000
vt 0.785714 0.400000
vt 0.857143 0.800000
vt 0.785714 1.000000
vt 0.857143 0.000000
vt 0.785714 0.200000
vt 0.857143 0.200000
vt 0.857143 0.400000
vt 0.857143 0.600000
vt 0.928571 0.800000
vt 0.857143 1.000000
vt 0.928571 0.000000
vt 0.928571 0.200000
vt 0.928571 0.400000
vt 1.000000 0.600000
vt 0.928571 0.600000
vt 1.000000 0.800000
vt 0.928571 1.000000
vt 1.000000 0.000000
vt 1.000000 0.400000
vt 0.071429 0.600000
vt -0.000000 0.800000
vt -0.000000 0.600000
vt 0.071429 0.800000
vt -0.000000 1.000000
vt 0.071429 0.000000
vt -0.000000 0.200000
vt -0.000000 0.000000
vt 0.071429 0.200000
vt -0.000000 0.400000
vt 0.142857 0.600000
vt 0.142857 0.800000
vt 0.071429 1.000000
vt 0.142857 0.000000
vt 0.142857 0.200000
vt 0.071429 0.400000
vt 0.142857 0.400000
vt 0.214286 0.600000
vt 0.214286 0.800000
vt 0.142857 1.000000
vt 0.214286 0.000000
vt 0.214286 0.200000
vt 0.285714 0.600000
vt 0.285714 1.000000
vt 0.214286 1.000000
vt 0.285714 0.000000
vt 0.285714 0.200000
vt 0.214286 0.400000
vt 0.285714 0.400000
vt 0.357143 0.600000
vt 0.285714 0.800000
vt 0.357143 0.800000
vt 0.357143 0.000000
vt 0.357143 0.400000
vt 0.428571 0.600000
vt 0.428571 0.800000
vt 0.357143 1.000000
vt 0.428571 0.000000
vt 0.357143 0.200000
vt 0.428571 0.400000
vt 0.428571 1.000000
vt 0.428571 0.200000
vt 1.000000 1.000000
vt 1.000000 0.200000
s 0
f 6/1/1 2/2/1 1/3/1
f 2/2/2 8/4/2 3/5/2
f 8/6/3 4/7/3 3/8/3
f 9/9/4 5/10/4 4/7/4
f 10/11/5 1/3/5 5/10/5
f 11/12/6 7/13/6 6/1/6
f 12/14/7 8/4/7 7/13/7
f 13/15/8 9/9/8 8/6/8
f 14/16/9 10/11/9 9/9/9
f 10/11/10 11/12/10 6/1/10
f 16/17/11 12/14/11 11/12/11
f 17/18/12 13/19/12 12/14/12
f 18/20/13 14/16/13 13/15/13
f 19/21/14 15/22/14 14/16/14
f 20/23/15 11/12/15 15/22/15
f 21/24/16 17/18/16 16/17/16
f 22/25/17 18/26/17 17/18/17
f 23/27/18 19/21/18 18/20/18
f 19/21/19 25/28/19 20/23/19
f 25/28/20 16/17/20 20/23/20
f 21/24/21 27/29/21 22/25/21
f 27/29/22 23/30/22 22/25/22
f 28/31/23 24/32/23 23/27/23
f 29/33/24 25/28/24 24/32/24
f 30/34/25 21/24/25 25/28/25
f 26/35/26 32/36/26 27/29/26
f 32/36/27 28/37/27 27/29/27
f 33/38/28 29/33/28 28/31/28
f 34/39/29 30/34/29 29/33/29
f 35/40/30 26/35/30 30/34/30
f 36/41/31 32/36/31 31/42/31
f 37/43/32 33/44/32 32/36/32
f 38/45/33 34/39/33 33/38/33
f 34/39/34 40/46/34 35/40/34
f 35/40/35 36/41/35 31/42/35
f 41/47/36 37/48/36 36/49/36
f 42/50/37 38/51/37 37/48/37
f 43/52/38 39/53/38 38/54/38
f 44/55/39 40/56/39 39/53/39
f 40/56/40 41/47/40 36/49/40
f 46/57/41 42/50/41 41/47/41
f 47/58/42 43/59/42 42/50/42
f 48/60/43 44/55/43 43/52/43
f 49/61/44 45/62/44 44/55/44
f 50/63/45 41/47/45 45/62/45
f 51/64/46 47/58/46 46/57/46
f 52/65/47 48/66/47 47/58/47
f 53/67/48 49/61/48 48/60/48
f 54/68/49 50/63/49 49/61/49
f 50/63/50 51/64/50 46/57/50
f 56/69/51 52/65/51 51/64/51
f 52/65/52 58/70/52 53/71/52
f 58/72/53 54/68/53 53/67/53
f 59/73/54 55/74/54 54/68/54
f 60/75/55 51/64/55 55/74/55
f 61/76/56 57/77/56 56/69/56
f 62/78/57 58/70/57 57/77/57
f 63/79/58 59/73/58 58/72/58
f 59/73/59 65/80/59 60/75/59
f 65/80/60 56/69/60 60/75/60
f 66/81/61 62/78/61 61/76/61
f 67/82/62 63/83/62 62/78/62
f 68/84/63 64/85/63 63/79/63
f 64/85/64 70/86/64 65/80/64
f 70/86/65 61/76/65 65/80/65
f 1/3/66 67/82/66 66/81/66
f 67/82/67 3/5/67 68/87/67
f 3/8/68 69/88/68 68/84/68
f 69/88/69 5/10/69 70/86/69
f 5/10/70 66/81/70 70/86/70
f 6/1/1 7/13/1 2/2/1
f 2/2/2 7/13/2 8/4/2
f 8/6/3 9/9/3 4/7/3
f 9/9/4 10/11/4 5/10/4
f 10/11/5 6/1/5 1/3/5
f 11/12/6 12/14/6 7/13/6
f 12/14/7 13/19/7 8/4/7
f 13/15/8 14/16/8 9/9/8
f 14/16/9 15/22/9 10/11/9
f 10/11/10 15/22/10 11/12/10
f 16/17/11 17/18/11 12/14/11
f 17/18/12 18/26/12 13/19/12
f 18/20/13 19/21/13 14/16/13
f 19/21/14 20/23/14 15/22/14
f 20/23/15 16/17/15 11/12/15
f 21/24/16 22/25/16 17/18/16
f 22/25/17 23/30/17 18/26/17
f 23/27/18 24/32/18 19/21/18
f 19/21/19 24/32/19 25/28/19
f 25/28/20 21/24/20 16/17/20
f 21/24/21 26/35/21 27/29/21
f 27/29/22 28/37/22 23/30/22
f 28/31/23 29/33/23 24/32/23
f 29/33/24 30/34/24 25/28/24
f 30/34/25 26/35/25 21/24/25
f 26/35/26 31/42/26 32/36/26
f 32/36/27 33/44/27 28/37/27
f 33/38/28 34/39/28 29/33/28
f 34/39/29 35/40/29 30/34/29
f 35/40/30 31/42/30 26/35/30
f 36/41/31 37/43/31 32/36/31
f 37/43/32 38/89/32 33/44/32
f 38/45/33 39/90/33 34/39/33
f 34/39/34 39/90/34 40/46/34
f 35/40/35 40/46/35 36/41/35
f 41/47/36 42/50/36 37/48/36
f 42/50/37 43/59/37 38/51/37
f 43/52/38 44/55/38 39/53/38
f 44/55/39 45/62/39 40/56/39
f 40/56/40 45/62/40 41/47/40
f 46/57/41 47/58/41 42/50/41
f 47/58/42 48/66/42 43/59/42
f 48/60/43 49/61/43 44/55/43
f 49/61/44 50/63/44 45/62/44
f 50/63/45 46/57/45 41/47/45
f 51/64/46 52/65/46 47/58/46
f 52/65/47 53/71/47 48/66/47
f 53/67/48 54/68/48 49/61/48
f 54/68/49 55/74/49 50/63/49
f 50/63/50 55/74/50 51/64/50
f 56/69/51 57/77/51 52/65/51
f 52/65/52 57/77/52 58/70/52
f 58/72/53 59/73/53 54/68/53
f 59/73/54 60/75/54 55/74/54
f 60/75/55 56/69/55 51/64/55
f 61/76/56 62/78/56 57/77/56
f 62/78/57 63/83/57 58/70/57
f 63/79/58 64/85/58 59/73/58
f 59/73/59 64/85/59 65/80/59
f 65/80/60 61/76/60 56/69/60
f 66/81/61 67/82/61 62/78/61
f 67/82/62 68/87/62 63/83/62
f 68/84/63 69/88/63 64/85/63
f 64/85/64 69/88/64 70/86/64
f 70/86/65 66/81/65 61/76/65
f 1/3/66 2/2/66 67/82/66
f 67/82/67 2/2/67 3/5/67
f 3/8/68 4/7/68 69/88/68
f 69/88/69 4/7/69 5/10/69
f 5/10/70 1/3/70 66/81/70
